<svg width="20" height="20" viewBox="0 0 20 20" fill="none" xmlns="http://www.w3.org/2000/svg">
<path d="M10 19.0572C15.0287 19.0572 19.1 14.8529 19.1 9.67312C19.1 4.49337 15.0287 0.289008 10 0.289008C4.9713 0.289008 0.9 4.49337 0.9 9.67312C0.9 14.8529 4.9713 19.0572 10 19.0572Z" stroke="#5C5C5C" stroke-width="0.2"/>
<path d="M10 10.491L7.73162 7.76106C7.56425 7.55963 7.29289 7.55963 7.12553 7.76106C6.95816 7.96248 6.95816 8.28906 7.12553 8.49048L9.69695 11.5852C9.86432 11.7866 10.1357 11.7866 10.303 11.5852L12.8745 8.49048C13.0418 8.28906 13.0418 7.96248 12.8745 7.76106C12.7071 7.55963 12.4358 7.55963 12.2684 7.76106L10 10.491Z" fill="#565656"/>
<mask id="mask0_742_27323" style="mask-type:alpha" maskUnits="userSpaceOnUse" x="7" y="7" width="6" height="5">
<path d="M10 10.491L7.73162 7.76106C7.56425 7.55963 7.29289 7.55963 7.12553 7.76106C6.95816 7.96248 6.95816 8.28906 7.12553 8.49048L9.69695 11.5852C9.86432 11.7866 10.1357 11.7866 10.303 11.5852L12.8745 8.49048C13.0418 8.28906 13.0418 7.96248 12.8745 7.76106C12.7071 7.55963 12.4358 7.55963 12.2684 7.76106L10 10.491Z" fill="white"/>
</mask>
<g mask="url(#mask0_742_27323)">
</g>
</svg>
