<svg width="30" height="30" viewBox="0 0 30 30" fill="none" xmlns="http://www.w3.org/2000/svg">
<g clip-path="url(#clip0_1019_25518)">
<path d="M15.0001 28.5667C15.525 28.5546 16.0288 28.3572 16.4222 28.0095C16.8157 27.6618 17.0735 27.1861 17.1501 26.6667H12.7667C12.8455 27.2002 13.1153 27.6871 13.5261 28.0366C13.937 28.3861 14.4607 28.5745 15.0001 28.5667V28.5667Z" fill="#2A2E33"/>
<path d="M27.0916 23.1917C26.288 22.4753 25.5845 21.654 25 20.75C24.3618 19.5021 23.9793 18.1393 23.875 16.7417V12.625C23.8716 12.1249 23.827 11.626 23.7416 11.1333C23.0857 11.0022 22.4553 10.7658 21.875 10.4333C22.0962 11.1457 22.2086 11.8874 22.2083 12.6333V16.75C22.3104 18.455 22.7794 20.1179 23.5833 21.625C24.1586 22.5367 24.8413 23.376 25.6166 24.125H4.27496C5.0503 23.376 5.73296 22.5367 6.30829 21.625C7.11214 20.1179 7.58115 18.455 7.68329 16.75V12.625C7.67891 11.6606 7.8648 10.7047 8.23033 9.81226C8.59586 8.91977 9.13384 8.10815 9.81347 7.42388C10.4931 6.7396 11.301 6.1961 12.191 5.8245C13.081 5.4529 14.0355 5.2605 15 5.25832C16.4114 5.25945 17.7912 5.67687 18.9666 6.45832C18.837 5.98248 18.7643 5.49295 18.75 4.99999V4.47499C17.8798 4.04696 16.9451 3.7654 15.9833 3.64166V2.59166C15.9833 2.2966 15.8661 2.01363 15.6574 1.805C15.4488 1.59637 15.1658 1.47916 14.8708 1.47916C14.5757 1.47916 14.2928 1.59637 14.0841 1.805C13.8755 2.01363 13.7583 2.2966 13.7583 2.59166V3.68332C11.6047 3.98712 9.63377 5.05978 8.20931 6.70327C6.78485 8.34676 6.00307 10.4501 6.00829 12.625V16.7417C5.90392 18.1393 5.52144 19.5021 4.88329 20.75C4.30903 21.6519 3.61679 22.4731 2.82496 23.1917C2.73607 23.2697 2.66483 23.3659 2.61597 23.4736C2.56712 23.5814 2.54178 23.6983 2.54163 23.8167V24.95C2.54163 25.171 2.62942 25.383 2.7857 25.5392C2.94198 25.6955 3.15395 25.7833 3.37496 25.7833H26.5416C26.7626 25.7833 26.9746 25.6955 27.1309 25.5392C27.2872 25.383 27.375 25.171 27.375 24.95V23.8167C27.3748 23.6983 27.3495 23.5814 27.3006 23.4736C27.2518 23.3659 27.1805 23.2697 27.0916 23.1917V23.1917Z" fill="#2A2E33"/>
<path d="M25 9.16668C27.3012 9.16668 29.1667 7.3012 29.1667 5.00001C29.1667 2.69882 27.3012 0.833344 25 0.833344C22.6989 0.833344 20.8334 2.69882 20.8334 5.00001C20.8334 7.3012 22.6989 9.16668 25 9.16668Z" fill="#E72828"/>
</g>
<defs>
<clipPath id="clip0_1019_25518">
<rect width="30" height="30" fill="white"/>
</clipPath>
</defs>
</svg>
