<svg width="54" height="54" viewBox="0 0 54 54" fill="none" xmlns="http://www.w3.org/2000/svg">
<mask id="path-1-inside-1_1350_27449" fill="white">
<path d="M54 27C54 41.9117 41.9117 54 27 54C12.0883 54 0 41.9117 0 27C0 12.0883 12.0883 0 27 0C41.9117 0 54 12.0883 54 27Z"/>
<path d="M24 20C24 18.8954 24.8954 18 26 18H28C29.1046 18 30 18.8954 30 20C30 21.1046 29.1046 22 28 22H26C24.8954 22 24 21.1046 24 20Z"/>
</mask>
<path d="M20.5858 36.4142L21.2929 35.7071H21.2929L20.5858 36.4142ZM33.4142 36.4142L32.7071 35.7071L33.4142 36.4142ZM33.6629 20.8889L32.8315 21.4444L33.6629 20.8889ZM33.1111 20.3371L32.5556 21.1685L33.1111 20.3371ZM20.3371 20.8889L21.1685 21.4444L20.3371 20.8889ZM20.8889 20.3371L21.4444 21.1685L20.8889 20.3371ZM24 26C23.4477 26 23 26.4477 23 27C23 27.5523 23.4477 28 24 28V26ZM30 28C30.5523 28 31 27.5523 31 27C31 26.4477 30.5523 26 30 26V28ZM24 30C23.4477 30 23 30.4477 23 31C23 31.5523 23.4477 32 24 32V30ZM28 32C28.5523 32 29 31.5523 29 31C29 30.4477 28.5523 30 28 30V32ZM33 23.5V33H35V23.5H33ZM30 36H24V38H30V36ZM21 33V23.5H19V33H21ZM24 36C23.0289 36 22.4012 35.9979 21.9387 35.9357C21.505 35.8774 21.369 35.7832 21.2929 35.7071L19.8787 37.1213C20.3883 37.631 21.0167 37.8297 21.6722 37.9179C22.299 38.0021 23.0855 38 24 38V36ZM19 33C19 33.9145 18.9979 34.701 19.0821 35.3278C19.1703 35.9833 19.369 36.6117 19.8787 37.1213L21.2929 35.7071C21.2168 35.631 21.1226 35.495 21.0643 35.0613C21.0021 34.5988 21 33.9711 21 33H19ZM33 33C33 33.9711 32.9979 34.5988 32.9357 35.0613C32.8774 35.495 32.7832 35.631 32.7071 35.7071L34.1213 37.1213C34.631 36.6117 34.8297 35.9833 34.9179 35.3278C35.0021 34.701 35 33.9145 35 33H33ZM30 38C30.9145 38 31.701 38.0021 32.3278 37.9179C32.9833 37.8297 33.6117 37.631 34.1213 37.1213L32.7071 35.7071C32.631 35.7832 32.495 35.8774 32.0613 35.9357C31.5988 35.9979 30.9711 36 30 36V38ZM35 23.5C35 22.8186 35.0012 22.2322 34.9527 21.7557C34.9026 21.2625 34.791 20.7772 34.4944 20.3333L32.8315 21.4444C32.8719 21.505 32.9289 21.623 32.963 21.9581C32.9988 22.3099 33 22.777 33 23.5H35ZM30.5 21C31.223 21 31.6901 21.0012 32.0419 21.037C32.377 21.0711 32.495 21.1281 32.5556 21.1685L33.6667 19.5056C33.2228 19.209 32.7375 19.0974 32.2443 19.0473C31.7678 18.9988 31.1814 19 30.5 19V21ZM34.4944 20.3333C34.2755 20.0057 33.9943 19.7245 33.6667 19.5056L32.5556 21.1685C32.6648 21.2415 32.7585 21.3352 32.8315 21.4444L34.4944 20.3333ZM21 23.5C21 22.777 21.0012 22.3099 21.037 21.9581C21.0711 21.623 21.1281 21.505 21.1685 21.4444L19.5056 20.3333C19.209 20.7772 19.0974 21.2625 19.0473 21.7557C18.9988 22.2322 19 22.8186 19 23.5H21ZM23.5 19C22.8186 19 22.2322 18.9988 21.7557 19.0473C21.2625 19.0974 20.7772 19.209 20.3333 19.5056L21.4444 21.1685C21.505 21.1281 21.623 21.0711 21.9581 21.037C22.3099 21.0012 22.777 21 23.5 21V19ZM21.1685 21.4444C21.2415 21.3352 21.3352 21.2415 21.4444 21.1685L20.3333 19.5056C20.0057 19.7245 19.7245 20.0057 19.5056 20.3333L21.1685 21.4444ZM24 28H30V26H24V28ZM24 32H28V30H24V32ZM52 27C52 40.8071 40.8071 52 27 52V56C43.0163 56 56 43.0163 56 27H52ZM27 52C13.1929 52 2 40.8071 2 27H-2C-2 43.0163 10.9837 56 27 56V52ZM2 27C2 13.1929 13.1929 2 27 2V-2C10.9837 -2 -2 10.9837 -2 27H2ZM27 2C40.8071 2 52 13.1929 52 27H56C56 10.9837 43.0163 -2 27 -2V2ZM26 20H28V16H26V20ZM28 20H26V24H28V20ZM26 20H22C22 22.2091 23.7909 24 26 24V20ZM28 20V24C30.2091 24 32 22.2091 32 20H28ZM28 20H32C32 17.7909 30.2091 16 28 16V20ZM26 16C23.7909 16 22 17.7909 22 20H26V16Z" fill="#FBA30D" mask="url(#path-1-inside-1_1350_27449)"/>
</svg>
