<svg width="54" height="54" viewBox="0 0 54 54" fill="none" xmlns="http://www.w3.org/2000/svg">
<path d="M54 27C54 41.9117 41.9117 54 27 54C12.0883 54 0 41.9117 0 27C0 12.0883 12.0883 0 27 0C41.9117 0 54 12.0883 54 27Z" fill="#287AFB" fill-opacity="0.1"/>
<path d="M40.4152 19C39.9946 19.0001 39.5804 19.1058 39.2086 19.3079C38.8367 19.5101 38.5185 19.8025 38.2816 20.1598C38.0447 20.5171 37.8961 20.9285 37.849 21.3582C37.8018 21.788 37.8574 22.223 38.0109 22.6257L32.5753 28.2149C31.9693 27.9697 31.2955 27.9697 30.6896 28.2149L26.8039 24.2194C26.9577 23.8167 27.0136 23.3814 26.9666 22.9514C26.9196 22.5214 26.7711 22.1098 26.5342 21.7522C26.2972 21.3947 25.9788 21.1021 25.6068 20.8999C25.2348 20.6977 24.8204 20.592 24.3996 20.592C23.9788 20.592 23.5644 20.6977 23.1924 20.8999C22.8204 21.1021 22.502 21.3947 22.2651 21.7522C22.0281 22.1098 21.8796 22.5214 21.8326 22.9514C21.7856 23.3814 21.8415 23.8167 21.9953 24.2194L15.5265 30.8711C14.974 30.6483 14.3638 30.6278 13.7984 30.8132C13.233 30.9986 12.7469 31.3785 12.4219 31.889C12.0969 32.3996 11.9527 33.0097 12.0137 33.6166C12.0746 34.2236 12.337 34.7905 12.7566 35.222C13.1762 35.6535 13.7275 35.9233 14.3178 35.9859C14.9081 36.0486 15.5014 35.9004 15.998 35.5662C16.4945 35.232 16.8639 34.7321 17.0442 34.1508C17.2245 33.5694 17.2046 32.9419 16.9879 32.3738L23.4568 25.7221C24.0627 25.9674 24.7365 25.9674 25.3425 25.7221L29.2282 29.7177C29.0743 30.1204 29.0184 30.5557 29.0655 30.9856C29.1125 31.4156 29.2609 31.8273 29.4979 32.1848C29.7349 32.5423 30.0532 32.835 30.4252 33.0372C30.7972 33.2394 31.2116 33.3451 31.6324 33.3451C32.0532 33.3451 32.4676 33.2394 32.8397 33.0372C33.2117 32.835 33.53 32.5423 33.767 32.1848C34.004 31.8273 34.1524 31.4156 34.1994 30.9856C34.2464 30.5557 34.1906 30.1204 34.0367 29.7177L39.4723 24.1284C39.826 24.2713 40.206 24.3322 40.5852 24.3067C40.9645 24.2812 41.3335 24.17 41.6662 23.981C41.9988 23.792 42.2868 23.5299 42.5096 23.2133C42.7323 22.8968 42.8845 22.5335 42.955 22.1496C43.0256 21.7656 43.013 21.3703 42.9179 20.992C42.8229 20.6136 42.6479 20.2615 42.4053 19.9607C42.1627 19.6599 41.8586 19.4178 41.5146 19.2518C41.1706 19.0857 40.7952 18.9997 40.4152 19Z" fill="#287AFB"/>
</svg>
