<svg width="56" height="56" viewBox="0 0 56 56" fill="none" xmlns="http://www.w3.org/2000/svg">
<path d="M36.2024 31.0276L35.2389 31.2953L35.2398 31.2984L36.2024 31.0276ZM36.3571 30.4558L35.4992 29.9418L35.4933 29.9519L36.3571 30.4558ZM36.4555 30.3105L37.251 30.9165L37.2688 30.8931L37.2852 30.8688L36.4555 30.3105ZM37.7493 26.0776L36.7493 26.0744L36.7493 26.0767L37.7493 26.0776ZM21.6243 24.4792L22.6013 24.6926L22.6017 24.6907L21.6243 24.4792ZM21.4508 26.0823L20.4508 26.0818V26.0823H21.4508ZM32.8696 33.2589L32.5168 32.3232L32.5149 32.3239L32.8696 33.2589ZM33.3055 33.1792L33.3066 34.1792L33.3094 34.1792L33.3055 33.1792ZM33.779 33.273L33.3943 34.196L33.4193 34.2064L33.4448 34.2155L33.779 33.273ZM36.4368 34.2151L36.8266 33.2943L36.7991 33.2826L36.7709 33.2726L36.4368 34.2151ZM36.6196 34.262L36.5182 35.2569L36.5688 35.262H36.6196V34.262ZM36.9946 33.887H37.9946V33.849L37.9917 33.811L36.9946 33.887ZM36.9711 33.7605L36.0085 34.0312L36.0107 34.0389L36.013 34.0466L36.9711 33.7605ZM19.9881 27.3608C20.2567 26.8782 20.0833 26.2693 19.6007 26.0007C19.1182 25.7321 18.5092 25.9055 18.2406 26.3881L19.9881 27.3608ZM19.4139 34.0308L20.2478 33.4789L20.2439 33.4732L19.4139 34.0308ZM19.0051 37.306L19.9862 37.4996L19.9872 37.4945L19.0051 37.306ZM19.1322 37.666L18.4898 38.4324L18.4993 38.4404L18.509 38.4481L19.1322 37.666ZM19.374 37.7494L19.3768 36.7494L19.3656 36.7495L19.374 37.7494ZM19.5105 37.7213L19.146 36.7901L19.1291 36.7967L19.1124 36.804L19.5105 37.7213ZM22.1453 36.6901L22.5098 37.6213L22.5121 37.6204L22.1453 36.6901ZM22.7078 36.6994L22.3102 37.617L22.3273 37.6244L22.3447 37.6312L22.7078 36.6994ZM25.5592 37.2619L25.5603 36.2619H25.5592V37.2619ZM29.8133 37.1196C30.291 36.8425 30.4537 36.2306 30.1766 35.7528C29.8995 35.2751 29.2875 35.1125 28.8098 35.3896L29.8133 37.1196ZM54 28C54 42.3594 42.3594 54 28 54V56C43.464 56 56 43.464 56 28H54ZM28 54C13.6406 54 2 42.3594 2 28H0C0 43.464 12.536 56 28 56V54ZM2 28C2 13.6406 13.6406 2 28 2V0C12.536 0 0 12.536 0 28H2ZM28 2C42.3594 2 54 13.6406 54 28H56C56 12.536 43.464 0 28 0V2ZM37.1659 30.76C37.195 30.8646 37.1922 30.9462 37.1884 30.9858C37.1864 31.0072 37.1834 31.0228 37.1815 31.0318C37.1795 31.0409 37.1779 31.0458 37.1777 31.0463C37.1776 31.0468 37.1783 31.0445 37.1804 31.0393C37.1824 31.0342 37.1854 31.0274 37.1894 31.0188C37.1977 31.0013 37.2083 30.9811 37.2209 30.9596L35.4933 29.9519C35.4233 30.0718 35.3351 30.242 35.2728 30.4371C35.2174 30.6102 35.1386 30.9344 35.2389 31.2953L37.1659 30.76ZM37.2149 30.9697C37.2259 30.9513 37.238 30.9335 37.251 30.9165L35.6601 29.7044C35.6021 29.7805 35.5484 29.8598 35.4993 29.9418L37.2149 30.9697ZM37.2852 30.8688C38.238 29.4528 38.7477 27.7852 38.7493 26.0785L36.7493 26.0767C36.7481 27.3862 36.357 28.6657 35.6259 29.7521L37.2852 30.8688ZM38.7493 26.0809C38.7653 21.1657 34.6294 17.2495 29.6071 17.2495V19.2495C33.6035 19.2495 36.7614 22.3458 36.7493 26.0744L38.7493 26.0809ZM29.6071 17.2495C25.2204 17.2495 21.5187 20.2381 20.6469 24.2677L22.6017 24.6907C23.2673 21.614 26.1281 19.2495 29.6071 19.2495V17.2495ZM20.6473 24.2658C20.517 24.8624 20.4512 25.4712 20.4508 26.0818L22.4508 26.0829C22.4511 25.6154 22.5015 25.1493 22.6012 24.6926L20.6473 24.2658ZM20.4508 26.0823C20.4508 30.9608 24.4044 35.0089 29.4665 35.0089V33.0089C25.5098 33.0089 22.4508 29.857 22.4508 26.0823H20.4508ZM29.4665 35.0089C30.324 35.0089 31.3968 34.7623 31.9435 34.6123L31.4144 32.6836C30.9018 32.8242 30.0433 33.0089 29.4665 33.0089V35.0089ZM31.9435 34.6123C32.5167 34.4551 33.0749 34.2505 33.2242 34.1939L32.5149 32.3239C32.3924 32.3704 31.9006 32.5502 31.4144 32.6836L31.9435 34.6123ZM33.2224 34.1946C33.2493 34.1844 33.2778 34.1792 33.3066 34.1792L33.3045 32.1792C33.0354 32.1795 32.7686 32.2283 32.5168 32.3232L33.2224 34.1946ZM33.3094 34.1792C33.3385 34.1791 33.3674 34.1848 33.3943 34.196L34.1636 32.3499C33.8905 32.2361 33.5975 32.1781 33.3017 32.1792L33.3094 34.1792ZM33.4448 34.2155L36.1027 35.1577L36.7709 33.2726L34.1131 32.3304L33.4448 34.2155ZM36.0469 35.136C36.1971 35.1996 36.356 35.2403 36.5182 35.2569L36.721 33.2672C36.7573 33.2709 36.7929 33.28 36.8266 33.2943L36.0469 35.136ZM36.6196 35.262C36.9843 35.262 37.334 35.1171 37.5919 34.8593L36.1776 33.4451C36.2949 33.3279 36.4538 33.262 36.6196 33.262V35.262ZM37.5919 34.8593C37.8497 34.6014 37.9946 34.2517 37.9946 33.887H35.9946C35.9946 33.7213 36.0604 33.5623 36.1776 33.4451L37.5919 34.8593ZM37.9917 33.811C37.983 33.6969 37.9621 33.584 37.9293 33.4743L36.013 34.0466C36.0048 34.0193 35.9996 33.9913 35.9975 33.963L37.9917 33.811ZM37.9338 33.4897L37.165 30.7568L35.2398 31.2984L36.0085 34.0312L37.9338 33.4897ZM18.2406 26.3881C17.5361 27.6537 17.1953 29.0895 17.2559 30.5367L19.2541 30.4531C19.209 29.3743 19.463 28.3042 19.9881 27.3608L18.2406 26.3881ZM17.2559 30.5367C17.3165 31.9839 17.776 33.3862 18.5838 34.5885L20.2439 33.4732C19.6418 32.577 19.2993 31.5318 19.2541 30.4531L17.2559 30.5367ZM18.58 34.5828C18.6224 34.6468 18.6248 34.6588 18.6153 34.6363C18.6095 34.6226 18.592 34.579 18.58 34.5125C18.5679 34.4458 18.5568 34.3309 18.5879 34.19L20.5408 34.6216C20.6178 34.2732 20.5105 33.9835 20.4582 33.8595C20.3959 33.7115 20.3137 33.5784 20.2478 33.4789L18.58 34.5828ZM18.5879 34.19C18.5746 34.2503 18.4301 35.0003 18.2957 35.6988C18.227 36.0561 18.1588 36.4108 18.1078 36.6761C18.0824 36.8088 18.0612 36.9191 18.0463 36.9963C18.0389 37.0348 18.0331 37.0651 18.0292 37.0858C18.0272 37.0961 18.0256 37.104 18.0246 37.1094C18.0241 37.112 18.0237 37.1141 18.0235 37.1154C18.0233 37.1161 18.0232 37.1166 18.0232 37.1169C18.0231 37.1171 18.0231 37.1172 18.0231 37.1173C18.0231 37.1174 18.0231 37.1174 18.0231 37.1174C18.0231 37.1174 18.0231 37.1175 19.0051 37.306C19.9872 37.4945 19.9872 37.4945 19.9872 37.4945C19.9872 37.4945 19.9872 37.4944 19.9872 37.4944C19.9872 37.4943 19.9873 37.4942 19.9873 37.494C19.9874 37.4937 19.9875 37.4932 19.9876 37.4925C19.9879 37.4911 19.9882 37.4891 19.9888 37.4865C19.9898 37.4811 19.9913 37.4732 19.9933 37.4629C19.9972 37.4423 20.003 37.412 20.0105 37.3734C20.0253 37.2963 20.0464 37.186 20.0719 37.0534C20.1229 36.7882 20.191 36.4338 20.2597 36.0767C20.3284 35.7195 20.3977 35.36 20.4509 35.0845C20.4775 34.9467 20.5001 34.8303 20.5165 34.746C20.5351 34.6506 20.542 34.6162 20.5408 34.6216L18.5879 34.19ZM18.0241 37.1124C17.9764 37.354 17.9945 37.6039 18.0764 37.8361L19.9624 37.1706C19.9997 37.2761 20.0079 37.3897 19.9862 37.4996L18.0241 37.1124ZM18.0764 37.8361C18.1583 38.0683 18.3011 38.2742 18.4898 38.4324L19.7745 36.8996C19.8603 36.9715 19.9252 37.0651 19.9624 37.1706L18.0764 37.8361ZM18.509 38.4481C18.757 38.6457 19.0654 38.7521 19.3825 38.7494L19.3656 36.7495C19.5071 36.7483 19.6447 36.7957 19.7553 36.8839L18.509 38.4481ZM19.3713 38.7494C19.5561 38.7499 19.739 38.7122 19.9085 38.6387L19.1124 36.804C19.1958 36.7677 19.2858 36.7492 19.3768 36.7494L19.3713 38.7494ZM19.8749 38.6525L22.5098 37.6213L21.7808 35.7588L19.146 36.7901L19.8749 38.6525ZM22.5121 37.6204C22.447 37.646 22.3744 37.6448 22.3102 37.617L23.1054 35.7819C22.6835 35.5991 22.2063 35.5911 21.7785 35.7597L22.5121 37.6204ZM22.3447 37.6312C23.3289 38.0147 24.4337 38.2619 25.5592 38.2619V36.2619C24.7206 36.2619 23.8623 36.0761 23.0709 35.7677L22.3447 37.6312ZM25.5581 38.2619C27.0525 38.2635 28.5206 37.8694 29.8133 37.1196L28.8098 35.3896C27.8226 35.9621 26.7015 36.2631 25.5603 36.2619L25.5581 38.2619Z" fill="#E24A34"/>
</svg>
