<svg width="54" height="54" viewBox="0 0 54 54" fill="none" xmlns="http://www.w3.org/2000/svg">
<path d="M54 27C54 41.9117 41.9117 54 27 54C12.0883 54 0 41.9117 0 27C0 12.0883 12.0883 0 27 0C41.9117 0 54 12.0883 54 27Z" fill="#0AB28B" fill-opacity="0.1"/>
<path d="M24.6 25.8C25.5548 25.8 26.4705 25.4207 27.1456 24.7456C27.8207 24.0705 28.2 23.1548 28.2 22.2C28.2 21.2452 27.8207 20.3295 27.1456 19.6544C26.4705 18.9793 25.5548 18.6 24.6 18.6C23.6452 18.6 22.7295 18.9793 22.0544 19.6544C21.3793 20.3295 21 21.2452 21 22.2C21 23.1548 21.3793 24.0705 22.0544 24.7456C22.7295 25.4207 23.6452 25.8 24.6 25.8ZM24.6 28.2C26.5096 28.2 28.3409 28.9586 29.6912 30.3088C31.0414 31.6591 31.8 33.4904 31.8 35.4H17.4C17.4 33.4904 18.1586 31.6591 19.5088 30.3088C20.8591 28.9586 22.6904 28.2 24.6 28.2ZM34.2 23.4C34.2 23.0817 34.0736 22.7765 33.8485 22.5515C33.6235 22.3264 33.3183 22.2 33 22.2C32.6817 22.2 32.3765 22.3264 32.1515 22.5515C31.9264 22.7765 31.8 23.0817 31.8 23.4V24.6H30.6C30.2817 24.6 29.9765 24.7264 29.7515 24.9515C29.5264 25.1765 29.4 25.4817 29.4 25.8C29.4 26.1183 29.5264 26.4235 29.7515 26.6485C29.9765 26.8736 30.2817 27 30.6 27H31.8V28.2C31.8 28.5183 31.9264 28.8235 32.1515 29.0485C32.3765 29.2736 32.6817 29.4 33 29.4C33.3183 29.4 33.6235 29.2736 33.8485 29.0485C34.0736 28.8235 34.2 28.5183 34.2 28.2V27H35.4C35.7183 27 36.0235 26.8736 36.2485 26.6485C36.4736 26.4235 36.6 26.1183 36.6 25.8C36.6 25.4817 36.4736 25.1765 36.2485 24.9515C36.0235 24.7264 35.7183 24.6 35.4 24.6H34.2V23.4Z" fill="#0AB28B"/>
</svg>
