<svg width="144" height="96" viewBox="0 0 144 96" fill="none" xmlns="http://www.w3.org/2000/svg">
<path d="M67.2911 14.3993C65.2764 15.1259 63.4848 16.3716 62.0937 18.0131C60.7026 19.6546 59.7602 21.6348 59.3602 23.7574C59.1799 25.0355 59.2548 25.323 59.8653 25.651C60.98 26.0942 62.2075 26.1582 63.3615 25.8331C63.901 25.4209 64.3348 24.884 64.6267 24.2676C65.4947 22.5603 66.9213 21.2094 68.6638 20.4442C70.9367 19.6595 73.4089 19.6972 75.6573 20.5507C77.0997 21.2057 79.4066 23.6094 79.4066 24.4827C79.4066 25.2111 80.9565 26.0483 82.3588 26.0483C84.0173 26.0483 84.8818 25.2474 84.594 23.9363C83.6209 19.4208 81.7821 16.9074 78.1413 15.0883C74.7276 13.5346 70.8705 13.2896 67.2911 14.3993Z" fill="#FBA30D"/>
<path d="M47.8618 28.3436C42.0227 29.9091 38.6699 34.4248 38.6699 40.7615C38.7058 48.9545 44.2938 54.2337 52.3322 53.6149C56.3694 53.3232 58.3156 52.486 60.6953 50.1196C63.0381 47.7159 63.8309 45.8235 64.2285 41.4175C64.4804 38.8689 64.6966 38.1767 65.5991 37.0841C69.9968 31.5855 79.7653 34.1712 79.7653 40.7977C79.7653 45.5678 74.2142 48.8086 69.2029 47.0236L67.8322 46.5136L66.7505 48.7351C66.3418 49.6606 65.8594 50.551 65.3081 51.3976C64.8031 52.0164 65.6329 52.5265 68.2603 53.2177C70.3685 53.7888 72.5776 53.8688 74.7209 53.4517C76.8643 53.0345 78.8858 52.1312 80.6331 50.8098L82.3633 49.3528L83.9132 50.7373C86.0772 52.5446 88.7835 53.5582 91.5909 53.6128C98.044 54.123 103.234 50.7725 104.893 45.0193C105.624 41.7188 105.437 38.2784 104.352 35.0787C101.649 28.8889 93.7175 26.1945 86.7968 29.1072L85.5316 29.6536L86.9022 32.2384C88.1274 34.5685 88.3076 34.7868 89.1374 34.6047C91.2018 34.0791 93.3552 34.0169 95.4455 34.4226C97.2533 35.1422 98.7832 36.4319 99.8077 38.1C100.457 39.7735 100.457 41.6333 99.8077 43.3068C97.645 48.5861 88.2718 48.8778 85.6043 43.7072C85.1472 42.3525 84.8565 40.9461 84.7387 39.5197C84.6256 37.8007 84.2235 36.1137 83.5494 34.5313C81.1697 29.6525 75.2201 27.0305 69.2387 28.1956C63.2183 29.3968 59.9383 33.2564 59.254 39.9926C59.17 41.3816 58.8657 42.748 58.3525 44.0396C56.2618 47.2804 51.183 48.406 47.3937 46.4795C41.8425 43.6039 42.8157 36.1745 48.9752 34.4269C50.993 34.0171 53.0769 34.0794 55.0672 34.609C55.7156 34.7911 56.0045 34.4269 57.1221 32.2426L58.4559 29.6206L56.7974 28.8921C53.9148 27.9373 50.8376 27.7484 47.8618 28.3436Z" fill="#2A2E33"/>
<path d="M13.7578 70.6283C13.7578 71.7444 13.9592 71.8967 15.5154 71.8967H17.273V81.536H20.2863V71.8967H22.045C23.6023 71.8967 23.8026 71.7444 23.8026 70.6283V69.3599H13.7578V70.6283Z" fill="#2A2E33"/>
<path d="M25.7122 69.6634C25.4612 69.8668 25.3105 72.606 25.3105 75.8021V81.5392H26.8171C28.2237 81.5392 28.3238 81.3869 28.3238 79.7639C28.3238 78.242 28.4746 77.9885 29.5289 77.9885C30.383 77.9885 31.0862 78.5466 31.8391 79.7639C32.6931 81.1335 33.2456 81.5392 34.4011 81.5392C36.0079 81.5392 35.9584 81.1335 34.1997 78.8C33.5966 77.9885 33.6472 77.7351 34.7016 76.67C35.4312 75.9149 35.8354 74.8988 35.8259 73.8436C35.8165 72.7885 35.394 71.78 34.651 71.0383C33.5966 69.7699 33.0442 69.6176 29.7789 69.4654C28.4217 69.3075 27.0481 69.3744 25.7122 69.6634ZM32.7437 73.621C32.945 75.3462 32.2418 75.9543 29.9813 75.9543C28.3744 75.9543 28.3238 75.9032 28.3238 73.8744V71.8477L30.4832 72C32.3926 72.1502 32.5939 72.3025 32.7437 73.621Z" fill="#2A2E33"/>
<path d="M38.2187 69.7144C37.8842 71.7252 37.7664 73.7666 37.8676 75.803V81.5358H40.881V75.4472C40.881 69.4099 40.881 69.3587 39.7212 69.3587C39.1959 69.3157 38.6704 69.4401 38.2187 69.7144Z" fill="#2A2E33"/>
<path d="M43.7943 69.6634C43.5434 69.8668 43.3926 72.6059 43.3926 75.802V81.5392H44.8993C46.3058 81.5392 46.4059 81.3869 46.4059 79.7638V77.9884H48.9174C52.0805 77.9884 53.9403 76.4666 53.9403 73.7775C53.9403 70.9361 52.1321 69.6676 47.7629 69.4653C46.4383 69.3075 45.097 69.3745 43.7943 69.6634ZM50.8258 73.6209C51.0271 75.3462 50.3239 75.9543 48.0634 75.9543C46.4566 75.9543 46.4059 75.9032 46.4059 73.8744V71.8477L48.5652 72C50.4747 72.1502 50.676 72.3025 50.8258 73.6209Z" fill="#2A2E33"/>
<path d="M55.9487 75.4485V81.5371H60.5194C64.9392 81.5371 65.0394 81.4859 64.8897 80.3656C64.7389 79.4017 64.3878 79.2494 61.8763 79.0972L58.9621 78.9449V69.3599H55.9487V75.4485Z" fill="#2A2E33"/>
<path d="M66.4966 75.4485V81.5371H71.0165C75.1855 81.5371 75.5366 81.4859 75.5366 80.5221C75.5366 79.6094 75.1855 79.5072 72.268 79.5072H68.9995V77.9863C68.9995 76.4645 69.0502 76.4645 71.7619 76.4645C74.1732 76.4645 74.5243 76.358 74.5243 75.4496C74.5243 74.5411 74.1732 74.4346 71.7619 74.4346C69.1503 74.4346 68.9995 74.3835 68.9995 73.1661C68.9995 71.9947 69.2009 71.9488 72.1627 71.7966C74.9756 71.6443 75.2772 71.5431 75.4311 70.477C75.585 69.411 75.487 69.3599 71.0672 69.3599H66.4966V75.4485Z" fill="#2A2E33"/>
<path d="M82.0673 70.6283C82.0673 71.7444 82.2687 71.8455 85.0311 71.9979L88.0444 72.1502L84.776 76.1578C83.5206 77.5751 82.4425 79.1428 81.5654 80.8256C81.5654 81.3837 82.7252 81.536 86.8372 81.536C92.1088 81.536 92.1088 81.536 92.1088 80.2676C92.1088 79.0961 91.9079 79.0503 89.045 78.898L85.9305 78.7457L89.0513 74.9405C93.3745 69.5622 93.269 69.3599 87.0924 69.3599C82.1179 69.3599 82.0673 69.3599 82.0673 70.6283Z" fill="#FBA30D"/>
<path d="M94.1221 75.4485V81.5371H98.642C102.811 81.5371 103.162 81.4305 103.162 80.5221C103.162 79.7106 102.76 79.5583 100.047 79.406C97.0342 79.2537 96.8837 79.2026 96.7324 77.833C96.5802 76.4634 96.6269 76.4634 99.3437 76.4634C101.805 76.4634 102.157 76.3569 102.157 75.4485C102.157 74.54 101.805 74.4335 99.3941 74.4335C96.7829 74.4335 96.6324 74.3824 96.6324 73.1651C96.6324 71.9478 96.7379 71.8967 99.9004 71.8967C103.064 71.8967 103.169 71.8455 103.169 70.6283C103.169 69.3599 103.119 69.3599 98.6494 69.3599H94.1221V75.4485Z" fill="#FBA30D"/>
<path d="M105.674 75.3962V81.5349H106.929C108.035 81.5349 108.185 81.3314 108.185 79.7595C108.185 78.1876 108.336 77.9841 109.441 77.9841C110.295 77.9841 111.048 78.4911 111.802 79.7595C112.656 81.079 113.309 81.5349 114.363 81.5349C116.022 81.5349 116.022 81.3825 114.665 79.4049L113.611 77.933L114.665 76.7616C115.392 75.9316 115.772 74.8493 115.725 73.7422C115.679 72.6352 115.209 71.5895 114.415 70.8252C113.36 69.8103 112.506 69.6079 109.391 69.4556L105.674 69.2576V75.3962ZM112.705 72.9105C113.609 74.6358 112.504 75.9542 110.194 75.9542C108.184 75.9542 108.184 75.9542 108.184 73.9244C108.184 71.8945 108.184 71.8945 110.194 71.8945C111.651 71.8956 112.303 72.149 112.705 72.9105Z" fill="#FBA30D"/>
<path d="M120.994 69.8661C120.085 70.3167 119.292 70.9719 118.673 71.7811C118.055 72.5904 117.629 73.5322 117.428 74.534C117.262 75.7419 117.444 76.9724 117.952 78.0788C118.459 79.1852 119.271 80.1207 120.29 80.7738C121.394 81.2509 122.582 81.4969 123.781 81.4969C124.982 81.4969 126.169 81.2509 127.272 80.7738C128.604 79.9297 129.577 78.6162 130.003 77.0882C130.43 75.5603 130.28 73.9266 129.582 72.5041C128.176 69.8661 124.007 68.6009 120.994 69.8661ZM126.37 72.7576C126.904 73.2774 127.271 73.9471 127.423 74.6799C127.576 75.4127 127.507 76.1748 127.225 76.8674C126.922 77.6111 126.416 78.2531 125.768 78.7198C125.118 79.1864 124.353 79.4588 123.557 79.5054C122.814 79.3178 122.124 78.9526 121.548 78.4405C120.805 77.7637 120.342 76.8297 120.248 75.8236C120.156 74.8175 120.44 73.8128 121.046 73.009C121.997 71.5915 125.212 71.4391 126.368 72.7544L126.37 72.7576Z" fill="#FBA30D"/>
</svg>
